<svg width="285" height="35" viewBox="0 0 285 35" fill="none" xmlns="http://www.w3.org/2000/svg">
<path d="M9.88 34L9.88 24.832L0.376 0.975999H10.696L15.352 15.568L19.912 0.975999H30.184L20.2 24.832V34H9.88ZM47.2401 34.768C43.7521 34.768 40.6801 34.032 38.0241 32.56C35.3681 31.088 33.2881 29.056 31.7841 26.464C30.3121 23.872 29.5761 20.896 29.5761 17.536C29.5761 14.144 30.3121 11.152 31.7841 8.56C33.2881 5.968 35.3681 3.936 38.0241 2.464C40.6801 0.992 43.7521 0.256 47.2401 0.256C50.7281 0.256 53.8001 0.992 56.4561 2.464C59.1121 3.904 61.1761 5.92 62.6481 8.512C64.1521 11.104 64.9041 14.112 64.9041 17.536C64.9041 20.896 64.1521 23.872 62.6481 26.464C61.1761 29.056 59.1121 31.088 56.4561 32.56C53.8001 34.032 50.7281 34.768 47.2401 34.768ZM47.2401 26.032C49.2561 26.032 50.9041 25.248 52.1841 23.68C53.4961 22.112 54.1521 20.048 54.1521 17.488C54.1521 15.76 53.8481 14.24 53.2401 12.928C52.6641 11.616 51.8481 10.592 50.7921 9.856C49.7681 9.088 48.5681 8.704 47.1921 8.704C45.1761 8.704 43.5281 9.52 42.2481 11.152C40.9681 12.752 40.3281 14.864 40.3281 17.488C40.3281 20.048 40.9681 22.112 42.2481 23.68C43.5281 25.248 45.1921 26.032 47.2401 26.032ZM84.2523 34.768C81.0523 34.768 78.2363 34.192 75.8043 33.04C73.3723 31.888 71.4843 30.24 70.1403 28.096C68.7963 25.92 68.1243 23.328 68.1243 20.32V0.975999H78.7803V19.84C78.7803 21.984 79.2923 23.568 80.3163 24.592C81.3723 25.584 82.7483 26.08 84.4443 26.08C86.2363 26.08 87.5963 25.568 88.5243 24.544C89.4843 23.52 89.9643 22.112 89.9643 20.32V0.975999L100.764 0.975999V20.32C100.764 23.168 100.06 25.68 98.6523 27.856C97.2443 30.032 95.2923 31.728 92.7963 32.944C90.3323 34.16 87.4843 34.768 84.2523 34.768ZM130.367 34.768C128.063 34.768 126.159 34.432 124.655 33.76C123.151 33.056 121.951 32.096 121.055 30.88C120.159 29.664 119.487 28.24 119.039 26.608C118.591 24.976 118.287 23.216 118.127 21.328H115.871V34H105.359V0.975999H118.943C124.191 0.975999 127.967 1.904 130.271 3.76C132.607 5.584 133.775 8.064 133.775 11.2C133.775 13.088 133.263 14.784 132.239 16.288C131.215 17.76 129.567 18.992 127.295 19.984C127.423 20.688 127.535 21.264 127.631 21.712C127.727 22.16 127.871 22.656 128.063 23.2C128.479 24.352 128.991 25.152 129.599 25.6C130.239 26.048 131.103 26.272 132.191 26.272C132.895 26.272 133.599 26.176 134.303 25.984L134.879 33.856C134.239 34.112 133.551 34.32 132.815 34.48C132.111 34.672 131.295 34.768 130.367 34.768ZM115.871 14.752H117.695C120.063 14.752 121.727 14.496 122.687 13.984C123.679 13.44 124.175 12.528 124.175 11.248C124.175 10.16 123.775 9.376 122.975 8.896C122.175 8.384 120.911 8.128 119.183 8.128H115.871V14.752ZM137.796 34V0.975999H147.78L156.036 17.008L164.1 0.975999H174.084V34H164.1V16.72L158.004 28.24H153.924L147.78 16.72V34H137.796ZM194.83 34.768C191.63 34.768 188.814 34.192 186.382 33.04C183.95 31.888 182.062 30.24 180.718 28.096C179.374 25.92 178.702 23.328 178.702 20.32V0.975999H189.358V19.84C189.358 21.984 189.87 23.568 190.894 24.592C191.95 25.584 193.326 26.08 195.022 26.08C196.814 26.08 198.174 25.568 199.102 24.544C200.062 23.52 200.542 22.112 200.542 20.32V0.975999H211.342V20.32C211.342 23.168 210.638 25.68 209.23 27.856C207.822 30.032 205.87 31.728 203.374 32.944C200.91 34.16 198.062 34.768 194.83 34.768ZM226.017 34.768C224.001 34.768 221.953 34.512 219.873 34C217.793 33.52 216.033 32.864 214.593 32.032L216.321 24.208C218.177 25.2 219.905 25.856 221.505 26.176C223.137 26.464 224.641 26.608 226.017 26.608C227.297 26.608 228.257 26.4 228.897 25.984C229.569 25.568 229.905 25.008 229.905 24.304C229.905 23.664 229.537 23.168 228.801 22.816C228.065 22.432 227.105 22.08 225.921 21.76C224.769 21.44 223.537 21.072 222.225 20.656C220.913 20.208 219.665 19.632 218.481 18.928C217.329 18.192 216.385 17.232 215.649 16.048C214.913 14.832 214.545 13.312 214.545 11.488C214.545 9.184 215.105 7.2 216.225 5.536C217.345 3.84 218.945 2.544 221.025 1.648C223.105 0.719999 225.553 0.256 228.369 0.256C230.257 0.256 232.097 0.511999 233.889 1.024C235.713 1.504 237.169 2.16 238.257 2.992L236.625 10.048C234.993 9.376 233.521 8.896 232.209 8.608C230.929 8.288 229.713 8.128 228.561 8.128C227.217 8.128 226.193 8.32 225.489 8.704C224.785 9.088 224.433 9.6 224.433 10.24C224.433 10.848 224.801 11.344 225.537 11.728C226.273 12.112 227.217 12.48 228.369 12.832C229.521 13.184 230.753 13.584 232.065 14.032C233.377 14.48 234.609 15.072 235.761 15.808C236.913 16.544 237.857 17.504 238.593 18.688C239.329 19.872 239.697 21.36 239.697 23.152C239.697 26.864 238.481 29.728 236.049 31.744C233.649 33.76 230.305 34.768 226.017 34.768ZM242.984 34V0.975999H253.832V34H242.984ZM274.901 34.768C271.445 34.768 268.421 34.08 265.829 32.704C263.269 31.296 261.269 29.328 259.829 26.8C258.421 24.272 257.717 21.328 257.717 17.968C257.717 14.512 258.453 11.456 259.925 8.8C261.429 6.144 263.477 4.064 266.069 2.56C268.693 1.024 271.701 0.256 275.093 0.256C278.869 0.256 281.829 0.992 283.973 2.464L282.677 10.096C281.749 9.648 280.773 9.328 279.749 9.136C278.757 8.912 277.813 8.8 276.917 8.8C274.293 8.8 272.229 9.584 270.725 11.152C269.221 12.72 268.469 14.896 268.469 17.68C268.469 20.304 269.189 22.368 270.629 23.872C272.101 25.344 274.133 26.08 276.725 26.08C277.749 26.08 278.677 25.984 279.509 25.792C280.373 25.6 281.429 25.248 282.677 24.736L284.021 32.32C281.237 33.952 278.197 34.768 274.901 34.768Z" fill="#4463BF"/>
</svg>
