<svg width="26" height="26" viewBox="0 0 26 26" fill="none" xmlns="http://www.w3.org/2000/svg">
<path d="M12.9982 25C10.3357 24.9996 7.74885 24.1137 5.64503 22.4818C3.54122 20.8499 2.03988 18.5646 1.37739 15.9858C0.714895 13.407 0.928868 10.6811 1.98562 8.23726C3.04238 5.7934 4.8819 3.7704 7.21457 2.48674C9.54725 1.20308 12.2406 0.731664 14.8706 1.14671C17.5006 1.56177 19.9179 2.83971 21.7419 4.77935C23.5659 6.71899 24.693 9.21017 24.9458 11.8607C25.1986 14.5112 24.5627 17.1705 23.1382 19.42L24.9982 25L19.4182 23.14C17.4988 24.3582 15.2716 25.0035 12.9982 25Z" stroke="#E7E7E7" stroke-width="2" stroke-linecap="round" stroke-linejoin="round"/>
<circle cx="6.33333" cy="13.0003" r="1.33333" fill="#E7E7E7"/>
<circle cx="13.0013" cy="13.0003" r="1.33333" fill="#E7E7E7"/>
<circle cx="19.6654" cy="13.0003" r="1.33333" fill="#E7E7E7"/>
</svg>
