<svg width="21" height="20" viewBox="0 0 21 20" fill="none" xmlns="http://www.w3.org/2000/svg">
<path d="M20.75 20L16.75 16H6.75C6.2 16 5.72917 15.8042 5.3375 15.4125C4.94583 15.0208 4.75 14.55 4.75 14V13H15.75C16.3 13 16.7708 12.8042 17.1625 12.4125C17.5542 12.0208 17.75 11.55 17.75 11V4H18.75C19.3 4 19.7708 4.19583 20.1625 4.5875C20.5542 4.97917 20.75 5.45 20.75 6V20ZM2.75 10.175L3.925 9H13.75V2H2.75V10.175ZM0.75 15V2C0.75 1.45 0.945833 0.979167 1.3375 0.5875C1.72917 0.195833 2.2 0 2.75 0H13.75C14.3 0 14.7708 0.195833 15.1625 0.5875C15.5542 0.979167 15.75 1.45 15.75 2V9C15.75 9.55 15.5542 10.0208 15.1625 10.4125C14.7708 10.8042 14.3 11 13.75 11H4.75L0.75 15Z" fill="#C7C7C7"/>
</svg>
