<svg width="26" height="24" viewBox="0 0 26 24" fill="none" xmlns="http://www.w3.org/2000/svg">
<path d="M13 24L11.115 22.2997C8.92667 20.3161 7.1175 18.6049 5.6875 17.1662C4.2575 15.7275 3.12 14.436 2.275 13.2916C1.43 12.1471 0.839583 11.0954 0.50375 10.1362C0.167917 9.17711 0 8.19619 0 7.19346C0 5.14441 0.6825 3.43324 2.0475 2.05995C3.4125 0.686648 5.11333 0 7.15 0C8.27667 0 9.34917 0.239782 10.3675 0.719346C11.3858 1.19891 12.2633 1.87466 13 2.74659C13.7367 1.87466 14.6142 1.19891 15.6325 0.719346C16.6508 0.239782 17.7233 0 18.85 0C20.8867 0 22.5875 0.686648 23.9525 2.05995C25.3175 3.43324 26 5.14441 26 7.19346C26 8.19619 25.8321 9.17711 25.4963 10.1362C25.1604 11.0954 24.57 12.1471 23.725 13.2916C22.88 14.436 21.7425 15.7275 20.3125 17.1662C18.8825 18.6049 17.0733 20.3161 14.885 22.2997L13 24ZM13 20.4687C15.08 18.594 16.7917 16.9864 18.135 15.6458C19.4783 14.3052 20.54 13.139 21.32 12.1471C22.1 11.1553 22.6417 10.2725 22.945 9.49864C23.2483 8.7248 23.4 7.9564 23.4 7.19346C23.4 5.88556 22.9667 4.79564 22.1 3.92371C21.2333 3.05177 20.15 2.6158 18.85 2.6158C17.8317 2.6158 16.8892 2.90463 16.0225 3.48229C15.1558 4.05995 14.56 4.79564 14.235 5.68937H11.765C11.44 4.79564 10.8442 4.05995 9.9775 3.48229C9.11083 2.90463 8.16833 2.6158 7.15 2.6158C5.85 2.6158 4.76667 3.05177 3.9 3.92371C3.03333 4.79564 2.6 5.88556 2.6 7.19346C2.6 7.9564 2.75167 8.7248 3.055 9.49864C3.35833 10.2725 3.9 11.1553 4.68 12.1471C5.46 13.139 6.52167 14.3052 7.865 15.6458C9.20833 16.9864 10.92 18.594 13 20.4687Z" fill="#E7E7E7"/>
</svg>
