<svg width="143" height="18" viewBox="0 0 143 18" fill="none" xmlns="http://www.w3.org/2000/svg">
<path d="M5.44 17L5.44 12.416L0.688 0.487999H5.848L8.176 7.784L10.456 0.487999H15.592L10.6 12.416V17H5.44ZM24.1201 17.384C22.3761 17.384 20.8401 17.016 19.5121 16.28C18.1841 15.544 17.1441 14.528 16.3921 13.232C15.6561 11.936 15.2881 10.448 15.2881 8.768C15.2881 7.072 15.6561 5.576 16.3921 4.28C17.1441 2.984 18.1841 1.968 19.5121 1.232C20.8401 0.496 22.3761 0.128 24.1201 0.128C25.8641 0.128 27.4001 0.496 28.7281 1.232C30.0561 1.952 31.0881 2.96 31.8241 4.256C32.5761 5.552 32.9521 7.056 32.9521 8.768C32.9521 10.448 32.5761 11.936 31.8241 13.232C31.0881 14.528 30.0561 15.544 28.7281 16.28C27.4001 17.016 25.8641 17.384 24.1201 17.384ZM24.1201 13.016C25.1281 13.016 25.9521 12.624 26.5921 11.84C27.2481 11.056 27.5761 10.024 27.5761 8.744C27.5761 7.88 27.4241 7.12 27.1201 6.464C26.8321 5.808 26.4241 5.296 25.8961 4.928C25.3841 4.544 24.7841 4.352 24.0961 4.352C23.0881 4.352 22.2641 4.76 21.6241 5.576C20.9841 6.376 20.6641 7.432 20.6641 8.744C20.6641 10.024 20.9841 11.056 21.6241 11.84C22.2641 12.624 23.0961 13.016 24.1201 13.016ZM42.6261 17.384C41.0261 17.384 39.6181 17.096 38.4021 16.52C37.1861 15.944 36.2421 15.12 35.5701 14.048C34.8981 12.96 34.5621 11.664 34.5621 10.16V0.487999H39.8901V9.92C39.8901 10.992 40.1461 11.784 40.6581 12.296C41.1861 12.792 41.8741 13.04 42.7221 13.04C43.6181 13.04 44.2981 12.784 44.7621 12.272C45.2421 11.76 45.4821 11.056 45.4821 10.16V0.487999L50.8821 0.487999V10.16C50.8821 11.584 50.5301 12.84 49.8261 13.928C49.1221 15.016 48.1461 15.864 46.8981 16.472C45.6661 17.08 44.2421 17.384 42.6261 17.384ZM65.6834 17.384C64.5314 17.384 63.5794 17.216 62.8274 16.88C62.0754 16.528 61.4754 16.048 61.0274 15.44C60.5794 14.832 60.2434 14.12 60.0194 13.304C59.7954 12.488 59.6434 11.608 59.5634 10.664H58.4354V17H53.1794V0.487999H59.9714C62.5954 0.487999 64.4834 0.951999 65.6354 1.88C66.8034 2.792 67.3874 4.032 67.3874 5.6C67.3874 6.544 67.1314 7.392 66.6194 8.144C66.1074 8.88 65.2834 9.496 64.1474 9.992C64.2114 10.344 64.2674 10.632 64.3154 10.856C64.3634 11.08 64.4354 11.328 64.5314 11.6C64.7394 12.176 64.9954 12.576 65.2994 12.8C65.6194 13.024 66.0514 13.136 66.5954 13.136C66.9474 13.136 67.2994 13.088 67.6514 12.992L67.9394 16.928C67.6194 17.056 67.2754 17.16 66.9074 17.24C66.5554 17.336 66.1474 17.384 65.6834 17.384ZM58.4354 7.376H59.3474C60.5314 7.376 61.3634 7.248 61.8434 6.992C62.3394 6.72 62.5874 6.264 62.5874 5.624C62.5874 5.08 62.3874 4.688 61.9874 4.448C61.5874 4.192 60.9554 4.064 60.0914 4.064H58.4354V7.376ZM69.3981 17V0.487999H74.3901L78.5181 8.504L82.5501 0.487999H87.5421V17H82.5501V8.36L79.5021 14.12H77.4621L74.3901 8.36V17H69.3981ZM97.9152 17.384C96.3152 17.384 94.9072 17.096 93.6912 16.52C92.4752 15.944 91.5312 15.12 90.8592 14.048C90.1872 12.96 89.8512 11.664 89.8512 10.16V0.487999H95.1792V9.92C95.1792 10.992 95.4352 11.784 95.9472 12.296C96.4752 12.792 97.1632 13.04 98.0112 13.04C98.9072 13.04 99.5872 12.784 100.051 12.272C100.531 11.76 100.771 11.056 100.771 10.16V0.487999H106.171V10.16C106.171 11.584 105.819 12.84 105.115 13.928C104.411 15.016 103.435 15.864 102.187 16.472C100.955 17.08 99.5312 17.384 97.9152 17.384ZM113.508 17.384C112.5 17.384 111.476 17.256 110.436 17C109.396 16.76 108.516 16.432 107.796 16.016L108.66 12.104C109.588 12.6 110.452 12.928 111.252 13.088C112.068 13.232 112.82 13.304 113.508 13.304C114.148 13.304 114.628 13.2 114.948 12.992C115.284 12.784 115.452 12.504 115.452 12.152C115.452 11.832 115.268 11.584 114.9 11.408C114.532 11.216 114.052 11.04 113.46 10.88C112.884 10.72 112.268 10.536 111.612 10.328C110.956 10.104 110.332 9.816 109.74 9.464C109.164 9.096 108.692 8.616 108.324 8.024C107.956 7.416 107.772 6.656 107.772 5.744C107.772 4.592 108.052 3.6 108.612 2.768C109.172 1.92 109.972 1.272 111.012 0.823999C112.052 0.36 113.276 0.128 114.684 0.128C115.628 0.128 116.548 0.256 117.444 0.511999C118.356 0.751999 119.084 1.08 119.628 1.496L118.812 5.024C117.996 4.688 117.26 4.448 116.604 4.304C115.964 4.144 115.356 4.064 114.78 4.064C114.108 4.064 113.596 4.16 113.244 4.352C112.892 4.544 112.716 4.8 112.716 5.12C112.716 5.424 112.9 5.672 113.268 5.864C113.636 6.056 114.108 6.24 114.684 6.416C115.26 6.592 115.876 6.792 116.532 7.016C117.188 7.24 117.804 7.536 118.38 7.904C118.956 8.272 119.428 8.752 119.796 9.344C120.164 9.936 120.348 10.68 120.348 11.576C120.348 13.432 119.74 14.864 118.524 15.872C117.324 16.88 115.652 17.384 113.508 17.384ZM121.992 17V0.487999H127.416V17H121.992ZM137.95 17.384C136.222 17.384 134.71 17.04 133.414 16.352C132.134 15.648 131.134 14.664 130.414 13.4C129.71 12.136 129.358 10.664 129.358 8.984C129.358 7.256 129.726 5.728 130.462 4.4C131.214 3.072 132.238 2.032 133.534 1.28C134.846 0.512 136.35 0.128 138.046 0.128C139.934 0.128 141.414 0.496 142.486 1.232L141.838 5.048C141.374 4.824 140.886 4.664 140.374 4.568C139.878 4.456 139.406 4.4 138.958 4.4C137.646 4.4 136.614 4.792 135.862 5.576C135.11 6.36 134.734 7.448 134.734 8.84C134.734 10.152 135.094 11.184 135.814 11.936C136.55 12.672 137.566 13.04 138.862 13.04C139.374 13.04 139.838 12.992 140.254 12.896C140.686 12.8 141.214 12.624 141.838 12.368L142.51 16.16C141.118 16.976 139.598 17.384 137.95 17.384Z" fill="white"/>
</svg>
