<svg width="21" height="20" viewBox="0 0 21 20" fill="none" xmlns="http://www.w3.org/2000/svg">
<path d="M19.1944 20L12.1944 13C11.6389 13.4444 11 13.7963 10.2778 14.0556C9.55556 14.3148 8.78704 14.4444 7.97222 14.4444C5.9537 14.4444 4.24537 13.7454 2.84722 12.3472C1.44907 10.9491 0.75 9.24074 0.75 7.22222C0.75 5.2037 1.44907 3.49537 2.84722 2.09722C4.24537 0.699074 5.9537 0 7.97222 0C9.99074 0 11.6991 0.699074 13.0972 2.09722C14.4954 3.49537 15.1944 5.2037 15.1944 7.22222C15.1944 8.03704 15.0648 8.80556 14.8056 9.52778C14.5463 10.25 14.1944 10.8889 13.75 11.4444L20.75 18.4444L19.1944 20ZM7.97222 12.2222C9.36111 12.2222 10.5417 11.7361 11.5139 10.7639C12.4861 9.79167 12.9722 8.61111 12.9722 7.22222C12.9722 5.83333 12.4861 4.65278 11.5139 3.68056C10.5417 2.70833 9.36111 2.22222 7.97222 2.22222C6.58333 2.22222 5.40278 2.70833 4.43056 3.68056C3.45833 4.65278 2.97222 5.83333 2.97222 7.22222C2.97222 8.61111 3.45833 9.79167 4.43056 10.7639C5.40278 11.7361 6.58333 12.2222 7.97222 12.2222Z" fill="#C7C7C7"/>
</svg>
